# xmcd CD database file
#
# Track frame offsets:
#	150
#	18259
#	35743
#	55055
#	79043
#	88840
#	100618
#	111414
#	126897
#	148194
#	163688
#	173597
#	198183
#	206887
#	226365
#	238732
#	255191
#	264453
#	280320
#
# Disc length: 3979 seconds
#
# Revision: 0
# Processed by: cddbd v1.5.2PL0 Copyright (c) Steve Scherf et al.
# Submitted via: CDex 1.51
#
DISCID=070f8913
DTITLE=Billy Campbell - Fallin' Again
DYEAR=2008
DGENRE=Country
TTITLE0=Fallin' Again
TTITLE1=Say It (Chris' Song)
TTITLE2=Sweeter Than Candy
TTITLE3=The Thought Of You
TTITLE4=Down On The Pacolet
TTITLE5=Can't Help Falling In Love
TTITLE6=Talking 'Bout Your Baby
TTITLE7=You're The One In My Dreams
TTITLE8=Sweet Autumn
TTITLE9=The Best Belong Together
TTITLE10=Never Ending Love
TTITLE11=Do You Ever Think Of Me
TTITLE12=Something Special To Me
TTITLE13=Swinging Face To Face
TTITLE14=Something In Your Heart
TTITLE15=They Said I Had A Real Good Time
TTITLE16=Tell Me Why
TTITLE17=Cheatin' Songs
TTITLE18=Fallin' Again
EXTD=YEAR: 2008
EXTT0=
EXTT1=
EXTT2=
EXTT3=
EXTT4=
EXTT5=
EXTT6=
EXTT7=
EXTT8=
EXTT9=
EXTT10=
EXTT11=
EXTT12=
EXTT13=
EXTT14=
EXTT15=
EXTT16=
EXTT17=
EXTT18=
PLAYORDER=
